<svg width="39" height="42" viewBox="0 0 39 42" fill="none" xmlns="http://www.w3.org/2000/svg">
<path d="M4.5 0C2.019 0 0 2.019 0 4.5V35.5C0 37.981 2.019 40 4.5 40H27C24.204 40 21.6783 38.85 19.8633 37H4.5C3.673 37 3 36.327 3 35.5V35H18.3496C17.8176 34.081 17.4192 33.074 17.2012 32H3V4.5C3 3.673 3.673 3 4.5 3H28.5C29.327 3 30 3.673 30 4.5V20.459C31.095 20.803 32.103 21.3387 33 22.0137V4.5C33 2.019 30.981 0 28.5 0H4.5ZM16.5 7C14.0325 7 12 9.0325 12 11.5C12 13.9675 14.0325 16 16.5 16C18.9675 16 21 13.9675 21 11.5C21 9.0325 18.9675 7 16.5 7ZM16.5 10C17.3465 10 18 10.6535 18 11.5C18 12.3465 17.3465 13 16.5 13C15.6535 13 15 12.3465 15 11.5C15 10.6535 15.6535 10 16.5 10ZM11.5 18C10.122 18 9 19.121 9 20.5V23C9 25.804 12.294 28 16.5 28C16.738 28 16.9731 27.9906 17.2051 27.9766C17.4441 26.8146 17.8921 25.7329 18.4961 24.7559C17.9091 24.9049 17.244 25 16.5 25C13.795 25 12 23.796 12 23V21H21V22.0137C21.896 21.3397 22.9021 20.8049 23.9961 20.4609C23.9741 19.0999 22.865 18 21.5 18H11.5ZM27 22C22.589 22 19 25.589 19 30C19 34.411 22.589 38 27 38C28.665 38 30.2102 37.4873 31.4922 36.6133L36.4395 41.5605C36.7325 41.8545 37.116 42 37.5 42C37.884 42 38.2675 41.8535 38.5605 41.5605C39.1455 40.9745 39.1455 40.0255 38.5605 39.4395L33.6152 34.4922C34.4882 33.2102 35 31.665 35 30C35 25.589 31.411 22 27 22ZM27 25C29.757 25 32 27.243 32 30C32 32.757 29.757 35 27 35C24.243 35 22 32.757 22 30C22 27.243 24.243 25 27 25Z" fill="white"/>
</svg>
